<?xml version="1.0" standalone="no"?>
<!DOCTYPE svg PUBLIC "-//W3C//DTD SVG 20010904//EN"
 "http://www.w3.org/TR/2001/REC-SVG-20010904/DTD/svg10.dtd">
<svg version="1.0" xmlns="http://www.w3.org/2000/svg"
 width="512.000000pt" height="512.000000pt" viewBox="0 0 512.000000 512.000000"
 preserveAspectRatio="xMidYMid meet">
<metadata>
Created by potrace 1.14, written by Peter Selinger 2001-2017
</metadata>
<g transform="translate(0.000000,512.000000) scale(0.100000,-0.100000)"
fill="#000000" stroke="none">
<path d="M0 2560 l0 -2560 2560 0 2560 0 0 1303 0 1302 -80 -3 c-44 -2 -92 -1
-107 3 -30 7 -207 175 -229 217 -12 22 -14 144 -14 730 l0 702 118 118 118
118 78 0 c42 0 86 -5 97 -10 19 -10 19 -4 19 315 l0 325 -2560 0 -2560 0 0
-2560z m1242 1813 l118 -117 0 -715 0 -715 -113 -113 -113 -113 -537 0 -538 0
-24 25 c-31 30 -32 71 -3 102 l21 23 506 0 507 0 72 73 72 72 0 64 0 63 -40
-36 -40 -36 -535 0 -536 0 -24 25 c-31 30 -32 71 -3 102 l21 23 506 0 507 0
72 73 72 72 0 475 0 474 -67 68 -67 68 -501 0 c-381 0 -506 3 -525 13 -29 15
-45 54 -36 90 14 56 14 56 585 57 l524 0 119 -117z m617 102 c32 -16 41 -33
41 -75 0 -44 -40 -70 -109 -70 -55 0 -56 0 -123 -67 l-68 -67 0 -475 0 -476
72 -72 72 -73 471 0 471 0 72 73 72 72 0 475 0 474 -67 68 -67 68 -274 0 -274
0 -30 30 c-35 36 -33 71 8 108 25 22 28 22 322 22 l296 0 118 -118 118 -118 0
-714 0 -714 -113 -113 -113 -113 -539 0 -539 0 -113 113 -113 113 0 718 0 719
93 95 c50 52 106 103 122 113 38 24 152 26 194 4z m2630 -100 l116 -114 3
-713 2 -712 -118 -118 -118 -118 -532 0 -533 0 -50 47 c-101 95 -168 163 -179
182 -7 13 -10 252 -10 722 l0 703 118 118 118 118 534 0 533 0 116 -115z
m-3424 -150 c72 -71 -28 -182 -102 -113 -33 31 -32 90 3 117 35 28 69 26 99
-4z m1629 4 c33 -26 37 -88 6 -119 -51 -51 -138 -3 -126 70 10 65 69 89 120
49z m-234 -324 l0 -64 -82 -3 -83 -3 -3 -242 -2 -243 -85 0 -85 0 0 245 0 245
-80 0 -80 0 0 65 0 65 250 0 250 0 0 -65z m-721 -1480 l116 -114 3 -673 c2
-370 0 -693 -3 -718 -6 -40 -18 -56 -103 -143 -54 -54 -109 -105 -124 -113
-22 -12 -119 -14 -550 -14 l-522 0 -118 118 -118 118 0 712 0 713 93 96 c50
53 106 104 122 114 28 18 61 19 559 19 l529 0 116 -115z m815 104 c27 -13 49
-60 39 -87 -18 -50 -26 -52 -198 -52 l-162 0 -71 -74 -72 -74 0 -470 0 -470
71 -71 70 -71 477 0 476 0 68 67 68 67 0 482 0 481 -69 66 -69 67 -180 0 -181
0 -20 26 c-24 30 -26 43 -10 77 19 42 47 47 256 47 l196 0 114 -112 113 -112
0 -719 0 -720 -97 -99 c-54 -55 -110 -106 -125 -114 -22 -12 -119 -14 -550
-14 l-522 0 -118 118 -118 118 0 702 c0 590 2 707 14 730 16 30 180 193 211
210 28 16 356 16 389 1z m2436 -105 l110 -111 0 -713 0 -714 -118 -118 -118
-118 -258 0 -258 0 -29 29 c-32 32 -35 47 -18 84 19 43 46 47 287 47 l226 0
68 67 68 67 0 63 c0 35 -3 63 -7 63 -4 0 -22 -15 -41 -32 l-33 -33 -507 -3
c-279 -2 -522 0 -540 3 -18 3 -48 20 -67 37 l-35 30 0 -63 0 -63 67 -68 67
-68 91 0 c52 0 100 -6 115 -13 52 -26 52 -105 0 -132 -39 -20 -229 -21 -268
-1 -15 8 -71 59 -124 114 l-98 99 0 720 0 719 114 112 113 113 542 -3 542 -3
109 -111z m-1803 -139 c50 -35 32 -127 -27 -140 -59 -13 -110 46 -89 103 19
51 72 68 116 37z m-252 -260 c24 -23 25 -30 25 -145 0 -67 -5 -130 -10 -141
-21 -38 -62 -49 -190 -49 l-120 0 0 -130 0 -130 -90 0 -90 0 0 310 0 310 225
0 226 0 24 -25z"/>
<path d="M1600 2959 l0 -64 72 -72 72 -73 471 0 471 0 72 73 72 72 0 64 0 63
-40 -36 -40 -36 -535 0 -535 0 -40 36 -40 36 0 -63z"/>
<path d="M3297 4262 l-67 -68 0 -480 0 -481 69 -66 69 -67 472 0 472 0 69 67
69 66 0 481 0 482 -68 67 -68 67 -475 0 -475 0 -67 -68z m1018 -18 c19 -8 45
-55 45 -82 0 -11 -9 -31 -21 -46 -26 -33 -79 -36 -109 -6 -59 59 7 164 85 134z"/>
<path d="M3228 2953 l3 -68 67 -67 66 -68 474 0 474 0 69 67 69 66 0 70 0 69
-40 -36 -40 -36 -530 0 -530 0 -39 35 c-21 19 -40 35 -42 35 -2 0 -3 -30 -1
-67z"/>
<path d="M542 2317 l-72 -72 0 -470 0 -470 71 -72 71 -73 477 0 477 0 67 68
67 68 0 480 0 481 -71 66 -70 67 -472 0 -473 0 -72 -73z m1018 -37 c33 -33 30
-85 -7 -118 -48 -43 -123 -6 -123 60 0 64 86 102 130 58z m-530 -271 c12 -22
29 -54 40 -71 l18 -31 36 72 36 71 85 0 c47 0 85 -2 85 -5 0 -3 -36 -72 -80
-154 l-80 -150 0 -156 0 -155 -85 0 -85 0 0 156 0 156 -81 154 -81 154 86 0
86 0 20 -41z"/>
<path d="M470 1009 l0 -61 67 -69 66 -69 481 0 482 0 67 68 67 68 0 63 0 63
-35 -30 c-19 -17 -49 -34 -67 -37 -18 -3 -261 -5 -540 -3 l-507 3 -33 33 c-19
17 -37 32 -41 32 -4 0 -7 -27 -7 -61z"/>
<path d="M2090 1009 l0 -61 67 -69 66 -69 481 0 482 0 67 68 67 68 0 63 0 63
-35 -30 c-19 -17 -49 -34 -67 -37 -18 -3 -261 -5 -540 -3 l-507 3 -33 33 c-19
17 -37 32 -41 32 -4 0 -7 -27 -7 -61z"/>
<path d="M3792 2317 l-72 -72 0 -476 0 -475 68 -67 68 -67 480 0 480 0 67 68
67 68 0 474 0 475 -72 72 -72 73 -471 0 -471 0 -72 -73z m1035 -39 c48 -45 13
-138 -52 -138 -14 0 -37 11 -50 25 -72 71 28 182 102 113z m-262 -253 l25 -24
0 -266 c0 -252 -1 -266 -20 -285 -19 -19 -33 -20 -225 -20 -192 0 -206 1 -225
20 -19 19 -20 33 -20 289 l0 270 26 20 c25 20 40 21 221 21 193 0 194 0 218
-25z"/>
<path d="M4280 1740 l0 -170 65 0 65 0 0 170 0 170 -65 0 -65 0 0 -170z"/>
<path d="M2640 1855 l0 -55 70 0 70 0 0 55 0 55 -70 0 -70 0 0 -55z"/>
<path d="M5034 4333 c-61 -4 -62 -4 -128 -72 l-66 -69 0 -474 0 -474 73 -71
72 -72 68 -3 67 -3 0 623 c0 492 -3 622 -12 620 -7 -1 -41 -3 -74 -5z"/>
<path d="M4840 2958 l0 -64 73 -71 72 -72 68 -3 67 -3 0 105 0 105 -80 -3
c-99 -5 -120 0 -165 39 l-35 31 0 -64z"/>
</g>
</svg>
