<?xml version="1.0" standalone="no"?>
<!DOCTYPE svg PUBLIC "-//W3C//DTD SVG 20010904//EN"
 "http://www.w3.org/TR/2001/REC-SVG-20010904/DTD/svg10.dtd">
<svg version="1.0" xmlns="http://www.w3.org/2000/svg"
 width="400.000000pt" height="400.000000pt" viewBox="0 0 400.000000 400.000000"
 preserveAspectRatio="xMidYMid meet">
<metadata>
Created by potrace 1.14, written by Peter Selinger 2001-2017
</metadata>
<g transform="translate(0.000000,400.000000) scale(0.100000,-0.100000)"
fill="#000000" stroke="none">
<path d="M0 2000 l0 -2000 2000 0 2000 0 0 2000 0 2000 -2000 0 -2000 0 0
-2000z m2415 940 c185 -27 365 -120 365 -189 0 -59 -60 -69 -120 -21 -95 75
-275 128 -401 117 -109 -9 -159 -46 -159 -120 0 -80 57 -145 325 -369 159
-133 341 -313 392 -388 126 -186 147 -393 56 -580 -40 -83 -168 -205 -265
-253 -246 -119 -602 -109 -860 25 -76 39 -138 95 -138 123 0 7 4 25 10 39 17
45 79 34 148 -26 49 -42 160 -95 254 -120 104 -27 273 -30 359 -5 137 40 194
127 154 234 -24 64 -117 153 -336 325 -209 164 -313 254 -375 328 -105 123
-152 226 -161 355 -13 178 57 320 205 419 141 94 349 134 547 106z m-714 -10
c19 -11 25 -45 11 -66 -19 -29 -56 -34 -236 -34 l-186 0 0 -875 0 -875 -335 0
-335 0 0 875 0 875 -97 0 c-54 0 -153 -5 -220 -12 -136 -13 -153 -8 -153 43 0
60 -17 59 660 60 338 1 653 4 700 8 130 12 170 12 191 1z m1949 -930 l0 -920
-330 0 -330 0 0 920 0 920 330 0 330 0 0 -920z"/>
</g>
</svg>
